<svg xmlns="http://www.w3.org/2000/svg" xmlns:xlink="http://www.w3.org/1999/xlink" width="512" zoomAndPan="magnify" viewBox="0 0 384 383.999986" height="512" preserveAspectRatio="xMidYMid meet" version="1.0"><defs><g/><clipPath id="e717f80b70"><path d="M 353 111 L 374.421875 111 L 374.421875 133 L 353 133 Z M 353 111 " clip-rule="nonzero"/></clipPath><clipPath id="b472b53f08"><path d="M 104 335 L 182 335 L 182 358.691406 L 104 358.691406 Z M 104 335 " clip-rule="nonzero"/></clipPath><clipPath id="273391422e"><path d="M 161 121 L 339 121 L 339 358.691406 L 161 358.691406 Z M 161 121 " clip-rule="nonzero"/></clipPath><clipPath id="a3eb7ac872"><path d="M 9.921875 55 L 339 55 L 339 307 L 9.921875 307 Z M 9.921875 55 " clip-rule="nonzero"/></clipPath><clipPath id="29e38e0d92"><path d="M 266 185 L 374.421875 185 L 374.421875 358.691406 L 266 358.691406 Z M 266 185 " clip-rule="nonzero"/></clipPath></defs><path fill="#edf4fc" d="M 164.683594 341.691406 L 164.683594 339.195312 L 116.304688 339.195312 C 111.949219 339.195312 108.417969 342.722656 108.417969 347.070312 C 108.417969 351.417969 111.949219 354.941406 116.304688 354.941406 L 177.960938 354.941406 C 170.660156 354.941406 164.683594 348.980469 164.683594 341.691406 Z M 164.683594 341.691406 " fill-opacity="1" fill-rule="nonzero"/><path fill="#c7d7e5" d="M 142.171875 303.113281 L 164.683594 303.113281 L 164.683594 339.195312 L 142.171875 339.195312 Z M 142.171875 303.113281 " fill-opacity="1" fill-rule="nonzero"/><path fill="#5290db" d="M 270.191406 339.699219 L 270.191406 204.082031 C 270.191406 195.699219 277.066406 188.839844 285.464844 188.839844 L 334.648438 188.839844 L 334.648438 137.984375 C 334.648438 130.695312 328.671875 124.734375 321.371094 124.734375 L 177.964844 124.734375 C 170.660156 124.734375 164.6875 130.695312 164.6875 137.984375 L 164.6875 341.691406 C 164.6875 348.980469 170.660156 354.941406 177.964844 354.941406 L 285.464844 354.941406 C 277.066406 354.941406 270.191406 348.082031 270.191406 339.699219 Z M 270.191406 339.699219 " fill-opacity="1" fill-rule="nonzero"/><path fill="#5290db" d="M 164.683594 137.984375 C 164.683594 130.695312 170.660156 124.734375 177.960938 124.734375 L 321.367188 124.734375 C 328.667969 124.734375 334.644531 130.695312 334.644531 137.980469 L 334.644531 76.1875 C 334.644531 66.945312 327.066406 59.378906 317.800781 59.378906 L 30.324219 59.378906 C 21.0625 59.378906 13.480469 66.941406 13.480469 76.1875 L 13.480469 286.304688 C 13.480469 295.550781 21.058594 303.113281 30.324219 303.113281 L 164.683594 303.113281 Z M 164.683594 137.984375 " fill-opacity="1" fill-rule="nonzero"/><path fill="#5290db" d="M 355.589844 188.839844 L 285.464844 188.839844 C 277.066406 188.839844 270.191406 195.699219 270.191406 204.082031 L 270.191406 339.699219 C 270.191406 348.082031 277.066406 354.941406 285.464844 354.941406 L 355.589844 354.941406 C 363.988281 354.941406 370.863281 348.082031 370.863281 339.699219 L 370.863281 204.082031 C 370.863281 195.699219 363.988281 188.839844 355.589844 188.839844 Z M 355.589844 188.839844 " fill-opacity="1" fill-rule="nonzero"/><path fill="#edf4fc" d="M 352.960938 202.234375 L 337.25 202.234375 C 335.078125 202.234375 333.09375 203.523438 332.292969 205.535156 C 330.433594 210.207031 325.867188 213.507812 320.527344 213.507812 C 315.183594 213.507812 310.617188 210.203125 308.757812 205.535156 C 307.957031 203.523438 305.972656 202.234375 303.800781 202.234375 L 288.089844 202.234375 C 285.617188 202.234375 283.613281 204.238281 283.613281 206.703125 L 283.613281 337.074219 C 283.613281 339.542969 285.617188 341.542969 288.089844 341.542969 L 352.957031 341.542969 C 355.433594 341.542969 357.4375 339.542969 357.4375 337.074219 L 357.4375 206.703125 C 357.441406 204.238281 355.433594 202.234375 352.960938 202.234375 Z M 352.960938 202.234375 " fill-opacity="1" fill-rule="nonzero"/><path fill="#edf4fc" d="M 270.191406 339.699219 L 270.191406 204.082031 C 270.191406 195.699219 277.066406 188.839844 285.464844 188.839844 L 320.152344 188.839844 L 320.152344 140.503906 C 320.152344 139.78125 319.566406 139.195312 318.84375 139.195312 L 180.488281 139.195312 C 179.765625 139.195312 179.175781 139.78125 179.175781 140.503906 L 179.175781 339.171875 C 179.175781 339.890625 179.765625 340.476562 180.488281 340.476562 L 270.230469 340.476562 C 270.21875 340.21875 270.191406 339.964844 270.191406 339.699219 Z M 270.191406 339.699219 " fill-opacity="1" fill-rule="nonzero"/><path fill="#edf4fc" d="M 164.683594 258.289062 L 13.480469 258.289062 L 13.480469 286.304688 C 13.480469 295.550781 21.058594 303.113281 30.324219 303.113281 L 164.683594 303.113281 Z M 164.683594 258.289062 " fill-opacity="1" fill-rule="nonzero"/><path fill="#edf4fc" d="M 164.683594 137.984375 C 164.683594 130.695312 170.660156 124.734375 177.960938 124.734375 L 320.609375 124.734375 L 320.609375 76.1875 C 320.609375 74.648438 319.347656 73.386719 317.800781 73.386719 L 30.324219 73.386719 C 28.78125 73.386719 27.515625 74.648438 27.515625 76.1875 L 27.515625 258.289062 L 164.683594 258.289062 Z M 164.683594 137.984375 " fill-opacity="1" fill-rule="nonzero"/><path fill="#5290db" d="M 317.804688 73.386719 L 30.324219 73.386719 C 28.78125 73.386719 27.515625 74.648438 27.515625 76.1875 L 27.515625 90.292969 L 320.609375 90.292969 L 320.609375 76.1875 C 320.609375 74.648438 319.347656 73.386719 317.804688 73.386719 Z M 317.804688 73.386719 " fill-opacity="1" fill-rule="nonzero"/><path fill="#fc657e" d="M 50.5 73.386719 L 30.324219 73.386719 C 28.78125 73.386719 27.515625 74.648438 27.515625 76.1875 L 27.515625 90.292969 L 50.5 90.292969 Z M 50.5 73.386719 " fill-opacity="1" fill-rule="nonzero"/><path fill="#70d6f9" d="M 94.976562 242.332031 L 50.164062 242.332031 C 47.203125 242.332031 44.804688 239.9375 44.804688 236.984375 L 44.804688 179.476562 C 44.804688 176.523438 47.203125 174.128906 50.164062 174.128906 L 94.972656 174.128906 C 97.933594 174.128906 100.332031 176.523438 100.332031 179.476562 L 100.332031 236.984375 C 100.335938 239.9375 97.933594 242.332031 94.976562 242.332031 Z M 94.976562 242.332031 " fill-opacity="1" fill-rule="nonzero"/><path fill="#f5c84c" d="M 164.683594 242.332031 L 164.683594 174.128906 L 121.355469 174.128906 C 118.394531 174.128906 115.996094 176.523438 115.996094 179.476562 L 115.996094 236.980469 C 115.996094 239.9375 118.394531 242.328125 121.355469 242.328125 L 164.683594 242.328125 Z M 164.683594 242.332031 " fill-opacity="1" fill-rule="nonzero"/><path fill="#f5c84c" d="M 341.316406 276.675781 L 299.738281 276.675781 C 297.460938 276.675781 295.609375 278.519531 295.609375 280.792969 L 295.609375 291.058594 C 295.609375 293.332031 297.460938 295.175781 299.738281 295.175781 L 341.316406 295.175781 C 343.59375 295.175781 345.445312 293.332031 345.445312 291.058594 L 345.445312 280.792969 C 345.445312 278.519531 343.59375 276.675781 341.316406 276.675781 Z M 341.316406 276.675781 " fill-opacity="1" fill-rule="nonzero"/><path fill="#fc657e" d="M 341.316406 308.839844 L 299.738281 308.839844 C 297.460938 308.839844 295.609375 310.683594 295.609375 312.960938 L 295.609375 323.222656 C 295.609375 325.5 297.460938 327.34375 299.738281 327.34375 L 341.316406 327.34375 C 343.59375 327.34375 345.445312 325.5 345.445312 323.222656 L 345.445312 312.960938 C 345.445312 310.683594 343.59375 308.839844 341.316406 308.839844 Z M 341.316406 308.839844 " fill-opacity="1" fill-rule="nonzero"/><path fill="#70d6f9" d="M 341.316406 244.511719 L 299.738281 244.511719 C 297.460938 244.511719 295.609375 246.355469 295.609375 248.628906 L 295.609375 258.894531 C 295.609375 261.167969 297.460938 263.015625 299.738281 263.015625 L 341.316406 263.015625 C 343.59375 263.015625 345.445312 261.167969 345.445312 258.894531 L 345.445312 248.628906 C 345.445312 246.355469 343.59375 244.511719 341.316406 244.511719 Z M 341.316406 244.511719 " fill-opacity="1" fill-rule="nonzero"/><path fill="#70d6f9" d="M 201.238281 193.742188 C 198.234375 193.742188 195.796875 196.175781 195.796875 199.175781 L 195.796875 220.253906 C 195.796875 223.253906 198.230469 225.6875 201.238281 225.6875 L 270.191406 225.6875 L 270.191406 204.082031 C 270.191406 200.097656 271.757812 196.46875 274.289062 193.746094 L 201.238281 193.746094 Z M 201.238281 193.742188 " fill-opacity="1" fill-rule="nonzero"/><path fill="#f5c84c" d="M 201.238281 242.765625 C 198.234375 242.765625 195.796875 245.195312 195.796875 248.195312 L 195.796875 269.277344 C 195.796875 272.277344 198.230469 274.707031 201.238281 274.707031 L 270.191406 274.707031 L 270.191406 242.765625 Z M 201.238281 242.765625 " fill-opacity="1" fill-rule="nonzero"/><path fill="#fc657e" d="M 201.238281 291.785156 C 198.234375 291.785156 195.796875 294.21875 195.796875 297.21875 L 195.796875 318.296875 C 195.796875 321.296875 198.230469 323.730469 201.238281 323.730469 L 270.191406 323.730469 L 270.191406 291.789062 L 201.238281 291.789062 Z M 201.238281 291.785156 " fill-opacity="1" fill-rule="nonzero"/><g clip-path="url(#e717f80b70)"><path fill="#f5c84c" d="M 374.226562 121.464844 C 369.042969 120.503906 364.957031 116.507812 363.96875 111.441406 C 363.921875 111.1875 363.566406 111.1875 363.515625 111.441406 C 362.53125 116.507812 358.445312 120.503906 353.257812 121.464844 C 353 121.515625 353 121.863281 353.257812 121.910156 C 358.445312 122.875 362.53125 126.867188 363.515625 131.9375 C 363.566406 132.191406 363.921875 132.191406 363.96875 131.9375 C 364.957031 126.867188 369.042969 122.875 374.226562 121.910156 C 374.488281 121.863281 374.488281 121.515625 374.226562 121.464844 Z M 374.226562 121.464844 " fill-opacity="1" fill-rule="nonzero"/></g><path fill="#fc657e" d="M 209.445312 34.488281 C 204.773438 33.617188 201.09375 30.019531 200.207031 25.457031 C 200.160156 25.226562 199.839844 25.226562 199.796875 25.457031 C 198.910156 30.023438 195.230469 33.621094 190.558594 34.488281 C 190.324219 34.53125 190.324219 34.84375 190.558594 34.886719 C 195.226562 35.753906 198.90625 39.351562 199.796875 43.917969 C 199.839844 44.148438 200.160156 44.148438 200.207031 43.917969 C 201.09375 39.351562 204.773438 35.753906 209.445312 34.886719 C 209.679688 34.84375 209.679688 34.53125 209.445312 34.488281 Z M 209.445312 34.488281 " fill-opacity="1" fill-rule="nonzero"/><path fill="#70d6f9" d="M 74.625 327.210938 L 77.941406 327.210938 L 77.941406 323.898438 C 77.941406 321.421875 79.953125 319.414062 82.4375 319.414062 C 84.917969 319.414062 86.929688 321.421875 86.929688 323.898438 L 86.929688 327.210938 L 90.246094 327.210938 C 92.730469 327.210938 94.742188 329.21875 94.742188 331.695312 C 94.742188 334.171875 92.730469 336.179688 90.246094 336.179688 L 86.929688 336.179688 L 86.929688 339.492188 C 86.929688 341.96875 84.917969 343.976562 82.4375 343.976562 C 79.953125 343.976562 77.941406 341.96875 77.941406 339.492188 L 77.941406 336.179688 L 74.625 336.179688 C 72.140625 336.179688 70.128906 334.171875 70.128906 331.695312 C 70.128906 329.21875 72.140625 327.210938 74.625 327.210938 Z M 74.625 327.210938 " fill-opacity="1" fill-rule="nonzero"/><path fill="#87d147" d="M 358.898438 148.367188 C 358.898438 148.683594 358.867188 148.992188 358.804688 149.304688 C 358.746094 149.613281 358.652344 149.910156 358.53125 150.203125 C 358.410156 150.492188 358.265625 150.769531 358.089844 151.03125 C 357.914062 151.292969 357.714844 151.535156 357.492188 151.757812 C 357.265625 151.984375 357.023438 152.179688 356.761719 152.355469 C 356.5 152.53125 356.222656 152.679688 355.929688 152.800781 C 355.640625 152.921875 355.339844 153.011719 355.027344 153.074219 C 354.71875 153.132812 354.40625 153.164062 354.089844 153.164062 C 353.773438 153.164062 353.460938 153.132812 353.152344 153.074219 C 352.84375 153.011719 352.542969 152.921875 352.25 152.800781 C 351.957031 152.679688 351.683594 152.53125 351.417969 152.355469 C 351.15625 152.179688 350.914062 151.984375 350.691406 151.757812 C 350.46875 151.535156 350.269531 151.292969 350.09375 151.03125 C 349.917969 150.769531 349.769531 150.492188 349.648438 150.203125 C 349.527344 149.910156 349.4375 149.613281 349.375 149.304688 C 349.3125 148.992188 349.28125 148.683594 349.28125 148.367188 C 349.28125 148.050781 349.3125 147.738281 349.375 147.429688 C 349.4375 147.121094 349.527344 146.820312 349.648438 146.53125 C 349.769531 146.238281 349.917969 145.960938 350.09375 145.699219 C 350.269531 145.4375 350.46875 145.195312 350.691406 144.972656 C 350.914062 144.75 351.15625 144.550781 351.417969 144.375 C 351.683594 144.203125 351.960938 144.054688 352.25 143.933594 C 352.542969 143.8125 352.84375 143.722656 353.152344 143.660156 C 353.460938 143.597656 353.773438 143.566406 354.089844 143.566406 C 354.40625 143.566406 354.71875 143.597656 355.027344 143.660156 C 355.339844 143.722656 355.640625 143.8125 355.929688 143.933594 C 356.222656 144.054688 356.5 144.203125 356.761719 144.375 C 357.023438 144.550781 357.265625 144.75 357.492188 144.972656 C 357.714844 145.195312 357.914062 145.4375 358.089844 145.699219 C 358.265625 145.960938 358.410156 146.238281 358.53125 146.53125 C 358.652344 146.820312 358.746094 147.121094 358.804688 147.429688 C 358.867188 147.738281 358.898438 148.050781 358.898438 148.367188 Z M 358.898438 148.367188 " fill-opacity="1" fill-rule="nonzero"/><path fill="#70d6f9" d="M 169.53125 40.378906 C 169.53125 40.691406 169.5 41.003906 169.4375 41.3125 C 169.375 41.621094 169.285156 41.921875 169.164062 42.214844 C 169.042969 42.503906 168.894531 42.78125 168.71875 43.042969 C 168.542969 43.304688 168.34375 43.546875 168.121094 43.769531 C 167.898438 43.992188 167.65625 44.191406 167.394531 44.367188 C 167.128906 44.542969 166.851562 44.691406 166.5625 44.8125 C 166.269531 44.929688 165.96875 45.023438 165.660156 45.082031 C 165.351562 45.144531 165.039062 45.175781 164.722656 45.175781 C 164.40625 45.175781 164.09375 45.144531 163.785156 45.082031 C 163.472656 45.023438 163.171875 44.929688 162.882812 44.8125 C 162.589844 44.691406 162.3125 44.542969 162.050781 44.367188 C 161.789062 44.191406 161.542969 43.992188 161.320312 43.769531 C 161.097656 43.546875 160.898438 43.304688 160.722656 43.042969 C 160.546875 42.78125 160.398438 42.503906 160.28125 42.214844 C 160.160156 41.921875 160.066406 41.621094 160.003906 41.3125 C 159.945312 41.003906 159.914062 40.691406 159.914062 40.378906 C 159.914062 40.0625 159.945312 39.75 160.003906 39.441406 C 160.066406 39.132812 160.160156 38.832031 160.28125 38.542969 C 160.398438 38.25 160.546875 37.972656 160.722656 37.710938 C 160.898438 37.449219 161.097656 37.207031 161.320312 36.984375 C 161.542969 36.761719 161.789062 36.5625 162.050781 36.386719 C 162.3125 36.210938 162.589844 36.066406 162.882812 35.945312 C 163.171875 35.824219 163.472656 35.734375 163.785156 35.671875 C 164.09375 35.609375 164.40625 35.578125 164.722656 35.578125 C 165.039062 35.578125 165.351562 35.609375 165.660156 35.671875 C 165.96875 35.734375 166.269531 35.824219 166.5625 35.945312 C 166.851562 36.066406 167.128906 36.210938 167.394531 36.386719 C 167.65625 36.5625 167.898438 36.761719 168.121094 36.984375 C 168.34375 37.207031 168.542969 37.449219 168.71875 37.710938 C 168.894531 37.972656 169.042969 38.25 169.164062 38.542969 C 169.285156 38.832031 169.375 39.132812 169.4375 39.441406 C 169.5 39.75 169.53125 40.0625 169.53125 40.378906 Z M 169.53125 40.378906 " fill-opacity="1" fill-rule="nonzero"/><path fill="#f5c84c" d="M 49.929688 321.71875 C 49.929688 322.03125 49.898438 322.34375 49.835938 322.652344 C 49.773438 322.960938 49.683594 323.261719 49.5625 323.554688 C 49.441406 323.84375 49.292969 324.121094 49.117188 324.382812 C 48.941406 324.644531 48.742188 324.886719 48.519531 325.109375 C 48.296875 325.332031 48.054688 325.53125 47.792969 325.707031 C 47.527344 325.882812 47.25 326.03125 46.960938 326.152344 C 46.667969 326.269531 46.367188 326.363281 46.058594 326.421875 C 45.75 326.484375 45.4375 326.515625 45.121094 326.515625 C 44.804688 326.515625 44.492188 326.484375 44.183594 326.421875 C 43.871094 326.363281 43.570312 326.269531 43.28125 326.152344 C 42.988281 326.03125 42.710938 325.882812 42.449219 325.707031 C 42.1875 325.53125 41.941406 325.332031 41.71875 325.109375 C 41.496094 324.886719 41.296875 324.644531 41.121094 324.382812 C 40.945312 324.121094 40.796875 323.84375 40.679688 323.554688 C 40.558594 323.261719 40.464844 322.960938 40.402344 322.652344 C 40.34375 322.34375 40.3125 322.03125 40.3125 321.71875 C 40.3125 321.402344 40.34375 321.089844 40.402344 320.78125 C 40.464844 320.472656 40.558594 320.171875 40.679688 319.882812 C 40.796875 319.589844 40.945312 319.3125 41.121094 319.050781 C 41.296875 318.789062 41.496094 318.546875 41.71875 318.324219 C 41.941406 318.101562 42.1875 317.902344 42.449219 317.726562 C 42.710938 317.550781 42.988281 317.40625 43.28125 317.285156 C 43.570312 317.164062 43.871094 317.074219 44.183594 317.011719 C 44.492188 316.949219 44.804688 316.917969 45.121094 316.917969 C 45.4375 316.917969 45.75 316.949219 46.058594 317.011719 C 46.367188 317.074219 46.667969 317.164062 46.960938 317.285156 C 47.25 317.40625 47.527344 317.550781 47.792969 317.726562 C 48.054688 317.902344 48.296875 318.101562 48.519531 318.324219 C 48.742188 318.546875 48.941406 318.789062 49.117188 319.050781 C 49.292969 319.3125 49.441406 319.589844 49.5625 319.882812 C 49.683594 320.171875 49.773438 320.472656 49.835938 320.78125 C 49.898438 321.089844 49.929688 321.402344 49.929688 321.71875 Z M 49.929688 321.71875 " fill-opacity="1" fill-rule="nonzero"/><g clip-path="url(#b472b53f08)"><path fill="#000000" d="M 177.964844 358.492188 L 116.308594 358.492188 C 109.992188 358.492188 104.859375 353.367188 104.859375 347.066406 C 104.859375 340.765625 109.992188 335.644531 116.308594 335.644531 L 163.738281 335.644531 C 165.707031 335.644531 167.296875 337.234375 167.296875 339.195312 C 167.296875 341.160156 165.707031 342.75 163.738281 342.75 L 116.308594 342.75 C 113.917969 342.75 111.976562 344.683594 111.976562 347.066406 C 111.976562 349.449219 113.917969 351.390625 116.308594 351.390625 L 177.964844 351.390625 C 179.929688 351.390625 181.523438 352.980469 181.523438 354.941406 C 181.523438 356.902344 179.929688 358.492188 177.964844 358.492188 Z M 177.964844 358.492188 " fill-opacity="1" fill-rule="nonzero"/></g><path fill="#000000" d="M 142.171875 341.660156 C 140.203125 341.660156 138.613281 340.070312 138.613281 338.109375 L 138.613281 304.199219 C 138.613281 302.238281 140.203125 300.648438 142.171875 300.648438 C 144.136719 300.648438 145.730469 302.238281 145.730469 304.199219 L 145.730469 338.109375 C 145.730469 340.070312 144.136719 341.660156 142.171875 341.660156 Z M 142.171875 341.660156 " fill-opacity="1" fill-rule="nonzero"/><g clip-path="url(#273391422e)"><path fill="#000000" d="M 285.460938 358.492188 L 177.960938 358.492188 C 168.675781 358.492188 161.125 350.957031 161.125 341.691406 L 161.125 137.984375 C 161.125 128.71875 168.679688 121.179688 177.960938 121.179688 L 321.367188 121.179688 C 330.652344 121.179688 338.203125 128.71875 338.203125 137.984375 L 338.203125 187.921875 C 338.203125 189.882812 336.613281 191.472656 334.644531 191.472656 C 332.679688 191.472656 331.085938 189.882812 331.085938 187.921875 L 331.085938 137.984375 C 331.085938 132.632812 326.726562 128.285156 321.367188 128.285156 L 177.964844 128.285156 C 172.605469 128.285156 168.246094 132.636719 168.246094 137.984375 L 168.246094 341.691406 C 168.246094 347.039062 172.605469 351.390625 177.964844 351.390625 L 285.464844 351.390625 C 287.429688 351.390625 289.023438 352.980469 289.023438 354.941406 C 289.023438 356.902344 287.429688 358.492188 285.460938 358.492188 Z M 285.460938 358.492188 " fill-opacity="1" fill-rule="nonzero"/></g><g clip-path="url(#a3eb7ac872)"><path fill="#000000" d="M 163.871094 306.664062 L 30.324219 306.664062 C 19.074219 306.664062 9.921875 297.53125 9.921875 286.304688 L 9.921875 76.1875 C 9.921875 64.960938 19.074219 55.828125 30.324219 55.828125 L 317.804688 55.828125 C 329.050781 55.828125 338.203125 64.960938 338.203125 76.1875 L 338.203125 137.980469 C 338.203125 139.941406 336.613281 141.53125 334.644531 141.53125 C 332.679688 141.53125 331.085938 139.941406 331.085938 137.980469 L 331.085938 76.1875 C 331.085938 68.875 325.128906 62.933594 317.804688 62.933594 L 30.324219 62.933594 C 23 62.933594 17.039062 68.878906 17.039062 76.1875 L 17.039062 286.304688 C 17.039062 293.613281 23 299.5625 30.324219 299.5625 L 163.871094 299.5625 C 165.839844 299.5625 167.433594 301.152344 167.433594 303.113281 C 167.433594 305.074219 165.839844 306.664062 163.871094 306.664062 Z M 163.871094 306.664062 " fill-opacity="1" fill-rule="nonzero"/></g><g clip-path="url(#29e38e0d92)"><path fill="#000000" d="M 355.589844 358.492188 L 285.460938 358.492188 C 275.078125 358.492188 266.628906 350.0625 266.628906 339.699219 L 266.628906 204.082031 C 266.628906 193.71875 275.078125 185.289062 285.460938 185.289062 L 355.589844 185.289062 C 365.972656 185.289062 374.421875 193.71875 374.421875 204.082031 L 374.421875 339.699219 C 374.421875 350.0625 365.972656 358.492188 355.589844 358.492188 Z M 285.460938 192.394531 C 279.003906 192.394531 273.75 197.636719 273.75 204.082031 L 273.75 339.699219 C 273.75 346.144531 279.003906 351.390625 285.460938 351.390625 L 355.589844 351.390625 C 362.046875 351.390625 367.300781 346.144531 367.300781 339.699219 L 367.300781 204.082031 C 367.300781 197.636719 362.046875 192.394531 355.589844 192.394531 Z M 285.460938 192.394531 " fill-opacity="1" fill-rule="nonzero"/></g><path fill="#000000" d="M 61.890625 110.898438 L 53.347656 110.898438 C 51.382812 110.898438 49.789062 109.308594 49.789062 107.34375 C 49.789062 105.382812 51.382812 103.792969 53.347656 103.792969 L 61.890625 103.792969 C 63.859375 103.792969 65.449219 105.382812 65.449219 107.34375 C 65.449219 109.308594 63.859375 110.898438 61.890625 110.898438 Z M 61.890625 110.898438 " fill-opacity="1" fill-rule="nonzero"/><path fill="#000000" d="M 86.808594 110.898438 L 78.265625 110.898438 C 76.300781 110.898438 74.707031 109.308594 74.707031 107.34375 C 74.707031 105.382812 76.300781 103.792969 78.265625 103.792969 L 86.808594 103.792969 C 88.773438 103.792969 90.367188 105.382812 90.367188 107.34375 C 90.367188 109.308594 88.773438 110.898438 86.808594 110.898438 Z M 86.808594 110.898438 " fill-opacity="1" fill-rule="nonzero"/><path fill="#000000" d="M 111.726562 110.898438 L 103.183594 110.898438 C 101.214844 110.898438 99.621094 109.308594 99.621094 107.34375 C 99.621094 105.382812 101.214844 103.792969 103.183594 103.792969 L 111.726562 103.792969 C 113.691406 103.792969 115.285156 105.382812 115.285156 107.34375 C 115.285156 109.308594 113.691406 110.898438 111.726562 110.898438 Z M 111.726562 110.898438 " fill-opacity="1" fill-rule="nonzero"/><path fill="#000000" d="M 205.699219 159.207031 L 197.15625 159.207031 C 195.1875 159.207031 193.59375 157.617188 193.59375 155.65625 C 193.59375 153.695312 195.1875 152.105469 197.15625 152.105469 L 205.699219 152.105469 C 207.664062 152.105469 209.257812 153.695312 209.257812 155.65625 C 209.257812 157.617188 207.664062 159.207031 205.699219 159.207031 Z M 205.699219 159.207031 " fill-opacity="1" fill-rule="nonzero"/><path fill="#000000" d="M 230.613281 159.207031 L 222.070312 159.207031 C 220.105469 159.207031 218.511719 157.617188 218.511719 155.65625 C 218.511719 153.695312 220.105469 152.105469 222.070312 152.105469 L 230.613281 152.105469 C 232.582031 152.105469 234.175781 153.695312 234.175781 155.65625 C 234.175781 157.617188 232.582031 159.207031 230.613281 159.207031 Z M 230.613281 159.207031 " fill-opacity="1" fill-rule="nonzero"/><path fill="#000000" d="M 255.53125 159.207031 L 246.988281 159.207031 C 245.023438 159.207031 243.429688 157.617188 243.429688 155.65625 C 243.429688 153.695312 245.023438 152.105469 246.988281 152.105469 L 255.53125 152.105469 C 257.5 152.105469 259.089844 153.695312 259.089844 155.65625 C 259.089844 157.617188 257.5 159.207031 255.53125 159.207031 Z M 255.53125 159.207031 " fill-opacity="1" fill-rule="nonzero"/><path fill="#000000" d="M 342.386719 228.832031 L 333.84375 228.832031 C 331.875 228.832031 330.28125 227.242188 330.28125 225.28125 C 330.28125 223.316406 331.875 221.726562 333.84375 221.726562 L 342.386719 221.726562 C 344.351562 221.726562 345.945312 223.316406 345.945312 225.28125 C 345.945312 227.242188 344.351562 228.832031 342.386719 228.832031 Z M 342.386719 228.832031 " fill-opacity="1" fill-rule="nonzero"/><path fill="#000000" d="M 352.960938 345.097656 L 288.09375 345.097656 C 283.660156 345.097656 280.054688 341.5 280.054688 337.074219 L 280.054688 206.703125 C 280.054688 202.28125 283.660156 198.683594 288.09375 198.683594 L 303.804688 198.683594 C 307.484375 198.683594 310.726562 200.855469 312.066406 204.222656 C 313.453125 207.703125 316.773438 209.953125 320.527344 209.953125 C 324.277344 209.953125 327.601562 207.703125 328.984375 204.222656 C 330.324219 200.855469 333.570312 198.683594 337.25 198.683594 L 352.960938 198.683594 C 357.390625 198.683594 360.996094 202.28125 360.996094 206.703125 L 360.996094 337.074219 C 360.996094 341.5 357.390625 345.097656 352.960938 345.097656 Z M 288.09375 205.789062 C 287.585938 205.789062 287.171875 206.199219 287.171875 206.707031 L 287.171875 337.078125 C 287.171875 337.582031 287.585938 337.996094 288.09375 337.996094 L 352.960938 337.996094 C 353.46875 337.996094 353.878906 337.582031 353.878906 337.078125 L 353.878906 206.707031 C 353.878906 206.203125 353.46875 205.789062 352.960938 205.789062 L 337.25 205.789062 C 336.515625 205.789062 335.855469 206.214844 335.605469 206.847656 C 333.132812 213.050781 327.214844 217.058594 320.527344 217.058594 C 313.839844 217.058594 307.921875 213.050781 305.453125 206.847656 C 305.199219 206.214844 304.539062 205.789062 303.804688 205.789062 Z M 288.09375 205.789062 " fill-opacity="1" fill-rule="nonzero"/><path fill="#000000" d="M 269.683594 344.03125 L 180.488281 344.03125 C 177.800781 344.03125 175.617188 341.851562 175.617188 339.171875 L 175.617188 140.503906 C 175.617188 137.820312 177.800781 135.640625 180.488281 135.640625 L 318.84375 135.640625 C 321.527344 135.640625 323.714844 137.820312 323.714844 140.503906 L 323.714844 188.160156 C 323.714844 190.121094 322.121094 191.710938 320.152344 191.710938 C 318.1875 191.710938 316.59375 190.121094 316.59375 188.160156 L 316.59375 142.746094 L 182.738281 142.746094 L 182.738281 336.925781 L 269.679688 336.925781 C 271.648438 336.925781 273.238281 338.515625 273.238281 340.476562 C 273.238281 342.441406 271.648438 344.03125 269.683594 344.03125 Z M 269.683594 344.03125 " fill-opacity="1" fill-rule="nonzero"/><path fill="#000000" d="M 164.140625 261.839844 L 14.460938 261.839844 C 12.492188 261.839844 10.898438 260.25 10.898438 258.289062 C 10.898438 256.324219 12.492188 254.734375 14.460938 254.734375 L 164.140625 254.734375 C 166.105469 254.734375 167.699219 256.324219 167.699219 258.289062 C 167.699219 260.25 166.105469 261.839844 164.140625 261.839844 Z M 164.140625 261.839844 " fill-opacity="1" fill-rule="nonzero"/><path fill="#000000" d="M 27.515625 261.160156 C 25.550781 261.160156 23.957031 259.566406 23.957031 257.605469 L 23.957031 76.1875 C 23.957031 72.683594 26.8125 69.835938 30.324219 69.835938 L 317.804688 69.835938 C 321.3125 69.835938 324.171875 72.683594 324.171875 76.1875 L 324.171875 123.863281 C 324.171875 125.824219 322.578125 127.414062 320.609375 127.414062 C 318.644531 127.414062 317.050781 125.824219 317.050781 123.863281 L 317.050781 76.941406 L 31.078125 76.941406 L 31.078125 257.605469 C 31.078125 259.566406 29.484375 261.160156 27.515625 261.160156 Z M 27.515625 261.160156 " fill-opacity="1" fill-rule="nonzero"/><path fill="#000000" d="M 319.648438 93.847656 L 28.492188 93.847656 C 26.523438 93.847656 24.929688 92.257812 24.929688 90.292969 C 24.929688 88.332031 26.523438 86.742188 28.492188 86.742188 L 319.648438 86.742188 C 321.613281 86.742188 323.207031 88.332031 323.207031 90.292969 C 323.207031 92.257812 321.613281 93.847656 319.648438 93.847656 Z M 319.648438 93.847656 " fill-opacity="1" fill-rule="nonzero"/><path fill="#000000" d="M 50.5 92.78125 C 48.535156 92.78125 46.941406 91.191406 46.941406 89.226562 L 46.941406 74.175781 C 46.941406 72.214844 48.535156 70.625 50.5 70.625 C 52.46875 70.625 54.058594 72.214844 54.058594 74.175781 L 54.058594 89.226562 C 54.058594 91.191406 52.46875 92.78125 50.5 92.78125 Z M 50.5 92.78125 " fill-opacity="1" fill-rule="nonzero"/><path fill="#000000" d="M 94.972656 245.882812 L 50.167969 245.882812 C 45.25 245.882812 41.246094 241.890625 41.246094 236.980469 L 41.246094 179.476562 C 41.246094 174.566406 45.25 170.574219 50.167969 170.574219 L 94.976562 170.574219 C 99.894531 170.574219 103.894531 174.566406 103.894531 179.476562 L 103.894531 236.980469 C 103.894531 241.890625 99.890625 245.882812 94.972656 245.882812 Z M 50.167969 177.679688 C 49.171875 177.679688 48.363281 178.484375 48.363281 179.476562 L 48.363281 236.984375 C 48.363281 237.972656 49.171875 238.78125 50.167969 238.78125 L 94.976562 238.78125 C 95.96875 238.78125 96.777344 237.976562 96.777344 236.984375 L 96.777344 179.476562 C 96.777344 178.488281 95.96875 177.679688 94.976562 177.679688 Z M 50.167969 177.679688 " fill-opacity="1" fill-rule="nonzero"/><path fill="#000000" d="M 163.578125 245.882812 L 121.359375 245.882812 C 116.441406 245.882812 112.4375 241.890625 112.4375 236.980469 L 112.4375 179.476562 C 112.4375 174.566406 116.441406 170.574219 121.359375 170.574219 L 163.742188 170.574219 C 165.707031 170.574219 167.300781 172.164062 167.300781 174.125 C 167.300781 176.089844 165.707031 177.679688 163.742188 177.679688 L 121.359375 177.679688 C 120.363281 177.679688 119.554688 178.484375 119.554688 179.476562 L 119.554688 236.980469 C 119.554688 237.972656 120.363281 238.777344 121.359375 238.777344 L 163.578125 238.777344 C 165.542969 238.777344 167.136719 240.367188 167.136719 242.332031 C 167.136719 244.292969 165.542969 245.882812 163.578125 245.882812 Z M 163.578125 245.882812 " fill-opacity="1" fill-rule="nonzero"/><path fill="#000000" d="M 341.316406 298.730469 L 299.738281 298.730469 C 295.5 298.730469 292.050781 295.289062 292.050781 291.058594 L 292.050781 280.796875 C 292.050781 276.5625 295.5 273.121094 299.738281 273.121094 L 341.316406 273.121094 C 345.554688 273.121094 349.003906 276.566406 349.003906 280.796875 L 349.003906 291.058594 C 349.003906 295.289062 345.554688 298.730469 341.316406 298.730469 Z M 299.738281 280.226562 C 299.425781 280.226562 299.171875 280.484375 299.171875 280.796875 L 299.171875 291.058594 C 299.171875 291.375 299.425781 291.625 299.738281 291.625 L 341.316406 291.625 C 341.628906 291.625 341.882812 291.371094 341.882812 291.058594 L 341.882812 280.796875 C 341.882812 280.480469 341.628906 280.226562 341.316406 280.226562 Z M 299.738281 280.226562 " fill-opacity="1" fill-rule="nonzero"/><path fill="#000000" d="M 341.316406 330.898438 L 299.738281 330.898438 C 295.5 330.898438 292.050781 327.453125 292.050781 323.222656 L 292.050781 312.960938 C 292.050781 308.726562 295.5 305.289062 299.738281 305.289062 L 341.316406 305.289062 C 345.554688 305.289062 349.003906 308.730469 349.003906 312.960938 L 349.003906 323.222656 C 349.003906 327.453125 345.554688 330.898438 341.316406 330.898438 Z M 299.738281 312.390625 C 299.425781 312.390625 299.171875 312.644531 299.171875 312.960938 L 299.171875 323.222656 C 299.171875 323.539062 299.425781 323.792969 299.738281 323.792969 L 341.316406 323.792969 C 341.628906 323.792969 341.882812 323.535156 341.882812 323.222656 L 341.882812 312.960938 C 341.882812 312.644531 341.628906 312.390625 341.316406 312.390625 Z M 299.738281 312.390625 " fill-opacity="1" fill-rule="nonzero"/><path fill="#000000" d="M 341.316406 266.566406 L 299.738281 266.566406 C 295.5 266.566406 292.050781 263.125 292.050781 258.894531 L 292.050781 248.632812 C 292.050781 244.398438 295.5 240.960938 299.738281 240.960938 L 341.316406 240.960938 C 345.554688 240.960938 349.003906 244.402344 349.003906 248.632812 L 349.003906 258.894531 C 349.003906 263.125 345.554688 266.566406 341.316406 266.566406 Z M 299.738281 248.0625 C 299.425781 248.0625 299.171875 248.316406 299.171875 248.628906 L 299.171875 258.894531 C 299.171875 259.207031 299.425781 259.460938 299.738281 259.460938 L 341.316406 259.460938 C 341.628906 259.460938 341.882812 259.207031 341.882812 258.894531 L 341.882812 248.628906 C 341.882812 248.316406 341.628906 248.0625 341.316406 248.0625 Z M 299.738281 248.0625 " fill-opacity="1" fill-rule="nonzero"/><path fill="#000000" d="M 269.414062 229.238281 L 201.238281 229.238281 C 196.273438 229.238281 192.234375 225.207031 192.234375 220.253906 L 192.234375 199.175781 C 192.234375 194.222656 196.273438 190.191406 201.238281 190.191406 L 273.464844 190.191406 C 275.429688 190.191406 277.023438 191.78125 277.023438 193.742188 C 277.023438 195.707031 275.429688 197.296875 273.464844 197.296875 L 201.238281 197.296875 C 200.199219 197.296875 199.355469 198.140625 199.355469 199.175781 L 199.355469 220.253906 C 199.355469 221.289062 200.199219 222.132812 201.238281 222.132812 L 269.414062 222.132812 C 271.378906 222.132812 272.972656 223.722656 272.972656 225.683594 C 272.972656 227.648438 271.378906 229.238281 269.414062 229.238281 Z M 269.414062 229.238281 " fill-opacity="1" fill-rule="nonzero"/><path fill="#000000" d="M 269.414062 278.257812 L 201.238281 278.257812 C 196.273438 278.257812 192.234375 274.230469 192.234375 269.277344 L 192.234375 248.195312 C 192.234375 243.242188 196.273438 239.210938 201.238281 239.210938 L 269.546875 239.210938 C 271.515625 239.210938 273.109375 240.800781 273.109375 242.765625 C 273.109375 244.726562 271.515625 246.316406 269.546875 246.316406 L 201.238281 246.316406 C 200.199219 246.316406 199.355469 247.160156 199.355469 248.195312 L 199.355469 269.277344 C 199.355469 270.3125 200.199219 271.15625 201.238281 271.15625 L 269.414062 271.15625 C 271.378906 271.15625 272.972656 272.746094 272.972656 274.707031 C 272.972656 276.667969 271.378906 278.257812 269.414062 278.257812 Z M 269.414062 278.257812 " fill-opacity="1" fill-rule="nonzero"/><path fill="#000000" d="M 269.191406 327.28125 L 201.238281 327.28125 C 196.273438 327.28125 192.234375 323.25 192.234375 318.296875 L 192.234375 297.21875 C 192.234375 292.265625 196.273438 288.234375 201.238281 288.234375 L 269.324219 288.234375 C 271.292969 288.234375 272.886719 289.824219 272.886719 291.785156 C 272.886719 293.75 271.292969 295.339844 269.324219 295.339844 L 201.238281 295.339844 C 200.199219 295.339844 199.355469 296.183594 199.355469 297.21875 L 199.355469 318.296875 C 199.355469 319.332031 200.199219 320.175781 201.238281 320.175781 L 269.191406 320.175781 C 271.160156 320.175781 272.75 321.765625 272.75 323.726562 C 272.75 325.691406 271.160156 327.28125 269.191406 327.28125 Z M 269.191406 327.28125 " fill-opacity="1" fill-rule="nonzero"/><g fill="#000000" fill-opacity="1"><g transform="translate(195.475948, 197.624984)"><g><path d="M 1.1875 -0.828125 C 1.1875 -1.179688 1.265625 -1.445312 1.421875 -1.625 C 1.585938 -1.800781 1.816406 -1.890625 2.109375 -1.890625 C 2.410156 -1.890625 2.644531 -1.800781 2.8125 -1.625 C 2.988281 -1.445312 3.078125 -1.179688 3.078125 -0.828125 C 3.078125 -0.492188 2.988281 -0.234375 2.8125 -0.046875 C 2.644531 0.140625 2.410156 0.234375 2.109375 0.234375 C 1.847656 0.234375 1.628906 0.148438 1.453125 -0.015625 C 1.273438 -0.179688 1.1875 -0.453125 1.1875 -0.828125 Z M 1.1875 -0.828125 "/></g></g></g></svg>